<svg width="218" height="22" viewBox="0 0 218 22" fill="none" xmlns="http://www.w3.org/2000/svg">
<path d="M5.50841 5.35C6.85041 5.35 7.90641 4.294 7.90641 3.018C7.90641 1.72 6.85041 0.685999 5.50841 0.685999C4.18841 0.685999 3.11041 1.72 3.11041 3.018C3.11041 4.294 4.18841 5.35 5.50841 5.35ZM7.79641 14.986V6.362H0.316406V6.89L3.26441 9.376V14.986L0.316406 17.494V18H10.7664V17.494L7.79641 14.986ZM25.0475 15.008V9.464C24.9815 7.55 23.7495 6.01 21.5935 6.01C19.3495 6.01 18.0735 7.22 17.6775 9.068L17.5675 9.046V6.362H10.0875V6.868L13.0355 9.354V15.008L10.0875 17.494V18H18.9095V17.494L17.5675 15.008V10.234C17.6775 9.068 18.4255 8.386 19.2395 8.386C19.9655 8.386 20.5155 9.046 20.5155 10.454V15.008L19.1515 17.494V18H28.0175V17.494L25.0475 15.008ZM36.1101 13.974C36.1101 13.974 35.6481 15.954 34.4821 15.954C33.6901 15.954 33.0301 15.338 33.0301 13.996V6.89H36.2421V6.362H33.0301V2.578H32.5241L28.4981 6.362H27.2441V6.89H28.4981V14.414C28.4981 16.57 30.0161 18.308 32.5021 18.308C35.0101 18.308 36.1981 16.13 36.5061 14.128L36.1101 13.974ZM49.1598 6.12C47.5098 6.12 45.8378 6.692 45.1778 9.464L45.0238 9.442V6.362H37.4998V6.89L40.4918 9.376V15.008L37.4998 17.494V18H47.9718V17.494L45.0238 15.008V12.17C45.0238 10.806 45.3758 9.574 45.9258 8.804L49.8858 11.356H50.4138V6.362C50.1278 6.252 49.7318 6.12 49.1598 6.12ZM58.3051 18.308C62.0671 18.308 65.1031 15.58 65.1031 12.214C65.1031 8.87 62.0671 6.142 58.3051 6.142C54.5651 6.142 51.5291 8.87 51.5291 12.214C51.5291 15.58 54.5651 18.308 58.3051 18.308ZM58.3271 17.978C57.0511 17.978 56.6771 15.404 56.6771 12.236C56.6771 9.068 57.0731 6.494 58.3271 6.494C59.5811 6.494 59.9771 9.068 59.9771 12.236C59.9771 15.404 59.6031 17.978 58.3271 17.978ZM70.383 7.704C70.537 6.846 71.549 6.56 72.649 6.604L76.015 10.718L76.433 10.762L76.763 6.912C76.763 6.912 75.971 6.538 74.145 6.318C72.055 6.032 66.951 5.768 66.291 9.112C65.345 14.084 73.463 14.04 73.089 16.592C72.913 17.78 71.593 18 70.603 17.89L66.995 13.424L66.511 13.402L66.159 17.736C66.159 17.736 68.161 18.154 69.745 18.308C70.889 18.462 76.895 18.792 77.159 14.678C77.445 10.3 69.921 10.432 70.383 7.704ZM89.1711 5.966C87.4771 5.966 85.4971 6.802 84.7711 9.552V6.362H77.2691V6.89L80.2391 9.376V18.726L77.2691 21.212V21.74H87.7191V21.212L84.7711 18.726V14.744C85.4971 17.098 86.9931 18.308 89.1711 18.308C91.8771 18.308 94.2311 16.438 94.2311 12.126C94.2311 7.198 91.2611 5.966 89.1711 5.966ZM86.9271 16.394C85.9591 16.394 84.7931 14.92 84.7931 12.17C84.7931 9.838 85.6291 7.946 86.9271 7.946C88.5331 7.946 89.2811 9.838 89.2811 12.17C89.2811 14.502 88.4671 16.394 86.9271 16.394ZM100.493 12.192H108.523V12.148C108.523 8.76 106.631 6.01 102.297 6.01H102.253H102.165C98.6889 6.01 95.8729 8.76 95.8729 12.192C95.8729 15.58 98.6889 18.308 102.165 18.308C105.025 18.308 107.445 16.482 108.171 13.908L107.665 13.732C106.983 14.546 106.015 15.052 104.915 15.162C102.957 15.316 101.197 14.04 100.493 12.192ZM100.163 10.828C100.119 10.102 100.185 9.354 100.405 8.672C101.065 6.868 102.121 6.296 102.451 6.296C104.035 6.296 104.123 8.672 104.123 11.664H100.317C100.251 11.4 100.185 11.114 100.163 10.828ZM121.586 13.732C120.882 14.502 119.914 15.03 118.836 15.118C114.832 15.448 112.522 10.212 115.316 7.132C115.932 6.494 116.636 6.274 117.12 6.406L120.53 10.564L120.948 10.608L121.278 6.758C121.278 6.758 120.244 6.252 117.78 6.076C117.054 5.988 116.218 5.944 115.536 6.01C107.638 6.648 108.1 18.308 116.064 18.308C118.924 18.308 121.344 16.438 122.114 13.886L121.586 13.732ZM131.973 13.974C131.973 13.974 131.511 15.954 130.345 15.954C129.553 15.954 128.893 15.338 128.893 13.996V6.89H132.105V6.362H128.893V2.578H128.387L124.361 6.362H123.107V6.89H124.361V14.414C124.361 16.57 125.879 18.308 128.365 18.308C130.873 18.308 132.061 16.13 132.369 14.128L131.973 13.974ZM137.895 5.35C139.237 5.35 140.293 4.294 140.293 3.018C140.293 1.72 139.237 0.685999 137.895 0.685999C136.575 0.685999 135.497 1.72 135.497 3.018C135.497 4.294 136.575 5.35 137.895 5.35ZM140.183 14.986V6.362H132.703V6.89L135.651 9.376V14.986L132.703 17.494V18H143.153V17.494L140.183 14.986ZM149.7 18.308C153.462 18.308 156.498 15.58 156.498 12.214C156.498 8.87 153.462 6.142 149.7 6.142C145.96 6.142 142.924 8.87 142.924 12.214C142.924 15.58 145.96 18.308 149.7 18.308ZM149.722 17.978C148.446 17.978 148.072 15.404 148.072 12.236C148.072 9.068 148.468 6.494 149.722 6.494C150.976 6.494 151.372 9.068 151.372 12.236C151.372 15.404 150.998 17.978 149.722 17.978ZM171.012 15.008V9.464C170.946 7.55 169.714 6.01 167.558 6.01C165.314 6.01 164.038 7.22 163.642 9.068L163.532 9.046V6.362H156.052V6.868L159 9.354V15.008L156.052 17.494V18H164.874V17.494L163.532 15.008V10.234C163.642 9.068 164.39 8.386 165.204 8.386C165.93 8.386 166.48 9.046 166.48 10.454V15.008L165.116 17.494V18H173.982V17.494L171.012 15.008ZM175.761 18.286C176.993 18.286 177.983 17.296 177.983 16.064C177.983 14.832 176.993 13.842 175.761 13.842C174.529 13.842 173.539 14.832 173.539 16.064C173.539 17.296 174.529 18.286 175.761 18.286Z" fill="#CCA087"/>
<path d="M190.781 15.008L188.295 11.29L190.209 8.804L192.365 6.89V6.362H187.481V6.89L189.329 9.112L187.987 10.85L185.853 7.682L186.711 6.89V6.362H178.637V6.89L181.299 9.376L183.675 12.984L181.739 15.536L179.517 17.494V18H184.423V17.494L182.575 15.272L183.983 13.424L186.205 16.79L185.545 17.494V18H193.531V17.494L190.781 15.008ZM206.363 6.802V6.362H202.117V6.824L203.723 8.76C203.239 9.728 202.601 10.982 201.941 12.258L200.379 8.936L201.281 6.802V6.362H192.855V6.802L195.187 8.936L199.367 16.79C198.795 17.538 198.267 18 197.739 18H194.153V21.696H194.659C194.659 21.696 197.211 21.146 199.191 18.154C199.939 17.098 202.865 11.466 204.251 8.738L206.363 6.802ZM217.81 7.132V6.362H206.788V12.258H207.294L210.836 6.89H212.486L206.458 17.318V18H217.81V12.104H217.304L213.74 17.494H211.738L217.81 7.132Z" fill="#45251A"/>
</svg>
